<?xml version="1.0" encoding="UTF-8"?>
<svg id="Warstwa_2" data-name="Warstwa 2" xmlns="http://www.w3.org/2000/svg" viewBox="0 0 766.52 115.33">
  <defs>
    <style>
      .cls-1 {
        fill: #fff;
      }
    </style>
  </defs>
  <g id="Warstwa_1-2" data-name="Warstwa 1">
    <g>
      <path class="cls-1" d="M302.49,63.83c2.32,0,4.99-.1,8.01-.29,3.02-.19,6.34-.64,9.98-1.33l-1.51-10.79c-2.55.5-5.07.9-7.54,1.19-2.48.29-4.99.44-7.54.44-7.31,0-12.95-1.86-16.91-5.57-2.73-2.55-4.49-5.93-5.34-10.1h41.52c.23-2.44.35-5.07.35-7.89,0-9.59-2.27-16.91-6.82-21.93-4.55-5.03-10.98-7.54-19.29-7.54-8.82,0-15.65,2.79-20.48,8.36-4.84,5.57-7.25,13.38-7.25,23.44s2.85,18.25,8.56,23.76c5.71,5.51,13.8,8.27,24.28,8.27ZM285.34,16.13c2.88-3.56,6.93-5.34,12.16-5.34,4.64,0,8.28,1.48,10.91,4.44,2.63,2.96,3.95,7.2,3.95,12.74h-31.19c.41-4.94,1.8-8.9,4.18-11.84Z"/>
      <path class="cls-1" d="M395.03,24.8c-10.6,0-16.25,5.65-16.94,16.94h-1.4l-2.08-15.78h-30.07v10.1h20.09v51.41h12.3v-26.46c0-8.24,1.29-14.59,3.86-19.06,2.57-4.47,6.47-6.7,11.69-6.7,2.98,0,5.14.99,6.47,2.96,1.33,1.97,2,5.2,2,9.69h12.19c0-8.12-1.43-14-4.29-17.64-2.86-3.64-7.47-5.45-13.81-5.45Z"/>
      <path class="cls-1" d="M480.68,77.29c-2.17.21-4.22.32-6.15.32-5.45,0-9.37-1.1-11.75-3.31-2.38-2.2-3.57-5.74-3.57-10.62v-27.62h27.97v-10.1h-27.97V7.4h-12.3v18.57h-15.43v10.1h15.43v28.2c0,8.51,2.08,14.7,6.24,18.57,4.16,3.87,10.9,5.8,20.22,5.8,2.9,0,5.64-.12,8.21-.35s5.21-.58,7.92-1.04l-1.39-10.79c-2.79.35-5.26.63-7.43.84Z"/>
      <path class="cls-1" d="M532.68,24.8c-8.82,0-15.65,2.79-20.48,8.36-4.84,5.57-7.25,13.38-7.25,23.44s2.85,18.25,8.56,23.76,13.8,8.27,24.28,8.27c2.32,0,4.99-.1,8.01-.29s6.34-.64,9.98-1.33l-1.51-10.79c-2.55.5-5.07.9-7.54,1.19-2.48.29-4.99.44-7.54.44-7.31,0-12.95-1.86-16.91-5.57-2.73-2.55-4.49-5.93-5.34-10.1h41.52c.23-2.44.35-5.07.35-7.89,0-9.59-2.27-16.9-6.82-21.93-4.55-5.03-10.98-7.54-19.29-7.54ZM516.46,52.77c.41-4.94,1.8-8.9,4.18-11.84,2.88-3.56,6.93-5.34,12.16-5.34,4.64,0,8.28,1.48,10.91,4.44,2.63,2.96,3.95,7.2,3.95,12.74h-31.19Z"/>
      <path class="cls-1" d="M615.42,24.8c-10.6,0-16.25,5.65-16.94,16.94h-1.4l-2.08-15.78h-21.35v10.1h11.37v41.31h-13.69v10.1h41.08v-10.1h-15.09v-16.36c0-8.24,1.29-14.59,3.86-19.06,2.57-4.47,6.47-6.7,11.69-6.7,2.98,0,5.14.99,6.47,2.96,1.33,1.97,2,5.2,2,9.69h12.19c0-8.12-1.43-14-4.29-17.64-2.86-3.64-7.47-5.45-13.81-5.45Z"/>
      <path class="cls-1" d="M663.64,5.08h-4.35v10.73h2.61c2.75,0,4.83.57,6.24,1.71s2.12,2.83,2.12,5.08c0,2.36-.56,4.78-1.68,7.25-1.12,2.48-2.8,4.91-5.05,7.31l-3.48,3.77,8.7,7.66,3.25-3.54c3.44-3.75,6-7.55,7.66-11.4,1.66-3.85,2.5-7.53,2.5-11.05,0-5.76-1.56-10.13-4.67-13.08s-7.73-4.44-13.84-4.44Z"/>
      <path class="cls-1" d="M762.02,58.4c-3-2.59-7.73-4.66-14.19-6.21l-11.37-2.79c-2.63-.66-4.58-1.38-5.86-2.18-1.28-.79-1.91-2.08-1.91-3.86,0-2.67,1.55-4.59,4.64-5.77s8.09-1.77,14.97-1.77c2.28,0,4.62.06,7.02.17,2.4.12,5.16.33,8.3.64l1.28-10.68c-2.71-.43-5.35-.73-7.92-.9s-5.35-.26-8.33-.26c-11.49,0-19.82,1.51-24.98,4.53-5.16,3.02-7.75,7.89-7.75,14.62,0,4.64,1.42,8.1,4.26,10.39,2.84,2.28,7.3,4.2,13.38,5.74l14.16,3.6c2.05.5,3.57,1.21,4.56,2.12.99.91,1.48,2.29,1.48,4.15,0,2.67-1.4,4.61-4.21,5.83-2.8,1.22-7.32,1.83-13.55,1.83-2.79,0-5.73-.15-8.85-.46-3.11-.31-6.7-.77-10.76-1.39l-1.39,11.14c2.75.62,5.77,1.06,9.08,1.33,3.31.27,7.28.41,11.92.41,10.68,0,18.43-1.5,23.27-4.5,4.84-3,7.25-7.8,7.25-14.42,0-4.95-1.5-8.72-4.5-11.32Z"/>
      <path class="cls-1" d="M248.6,48.88v-11.88h-11.88v11.88h-53.45v-11.88h53.45V3.15h-65.33v73.64h-37.14l15.46-48.82h-12.71l-14.07,48.82h-1.79l-18.77-48.82h-12.74l19.43,48.82H11.88V15.02h55.82V4.33H0v83.14h119.32c-.77,1.78-1.59,3.38-2.45,4.79-2.05,3.35-4.52,5.87-7.4,7.57-2.88,1.7-6.35,2.8-10.42,3.31l-9.63,1.16.58,11.03,10.44-1.16c5.49-.62,10.2-2.05,14.13-4.29,3.93-2.24,7.33-5.61,10.21-10.1,2.13-3.32,4.11-7.42,5.93-12.3h213.82v-10.69h-95.94v-27.91ZM183.28,13.84h41.57v12.95h-41.57v-12.95ZM236.72,76.79h-53.45v-17.22h53.45v17.22Z"/>
    </g>
  </g>
</svg>